<svg width="465" height="484" viewBox="0 0 465 484" fill="none" xmlns="http://www.w3.org/2000/svg">
<g clip-path="url(#clip0_374_3892)">
<path d="M143.798 358.512L9.29536 375.682C6.09685 376.09 5.61191 380.523 8.6465 381.613L293.182 483.819C293.791 484.038 294.454 484.059 295.076 483.878L462.788 435.106C465.837 434.22 465.696 429.853 462.597 429.165L144.852 358.561C144.506 358.484 144.149 358.468 143.798 358.512Z" fill="#6C63FF"/>
<path d="M74.1474 319.691C74.1474 319.691 64.72 317.596 62.625 323.881C60.5301 330.165 59.4826 341.686 59.4826 341.686V351.563C59.4826 351.563 44.8178 377.298 61.5776 385.677C78.3373 394.056 87.7647 390.914 87.7647 390.914C87.7647 390.914 98.2396 385.677 93.0021 378.345L87.7647 371.014C87.7647 371.014 87.665 356.592 89.8098 355.424C91.9546 354.255 94.0496 351.113 94.0496 351.113L96.1446 327.023C96.1446 327.023 85.6697 315.502 74.1474 319.691Z" fill="#090814"/>
<path d="M187.414 53.3191C187.414 53.3191 196.172 84.8897 187.534 93.885C178.897 102.88 180.904 109.777 180.904 109.777C180.904 109.777 159.084 116.741 155.897 90.9576L161.218 110.634C161.218 110.634 140.734 109.018 146.722 83.4299C152.709 57.8423 160.132 57.8157 155.897 49.9735C151.662 42.1313 151.662 2.3303 175.754 0.235509C199.846 -1.85928 196.704 10.7095 196.704 10.7095L187.414 53.3191Z" fill="#090814"/>
<path d="M282.877 159.961C282.877 159.961 306.69 206.572 300.405 219.141C294.12 231.71 271.961 256.737 271.961 256.737H248.581L263.783 237.747L275.021 208.349L262.695 180.453L282.877 159.961Z" fill="#ED9DA0"/>
<path d="M189.326 57.4618C188.338 36.2611 204.725 18.2739 225.928 17.2863C247.13 16.2987 265.119 32.6847 266.107 53.8854C266.908 71.0793 256.28 86.1577 240.925 91.7705L235.788 141.16L196.485 111.396C196.485 111.396 204.173 100.606 208.01 88.6636C197.33 82.2717 189.948 70.8261 189.326 57.4618Z" fill="#ED9DA0"/>
<path d="M239.002 107.577C239.002 107.577 242.144 127.478 201.292 101.293L161.613 123.304L175.23 184.053L177.325 210.238C177.325 210.238 169.993 215.475 171.04 222.807C171.04 222.807 154.281 232.234 154.281 248.992C154.281 248.992 139.616 261.561 151.138 264.703C162.661 267.845 199.323 262.608 199.323 262.608L250.649 245.85C250.649 245.85 259.029 239.375 250.649 231.615L263.219 192.433C263.219 192.433 270.944 185.101 268.129 174.103C268.129 174.103 288.359 171.485 290.454 166.248C290.454 166.248 267.409 120.162 260.077 118.067C252.744 115.973 239.002 107.577 239.002 107.577Z" fill="#6C63FF"/>
<path d="M267.605 174.142C267.593 173.976 266.324 157.448 262.259 151.351C258.011 144.981 258.987 135.684 259.031 135.292L260.073 135.407C260.062 135.5 259.098 144.722 263.13 150.77C267.348 157.097 268.6 173.375 268.651 174.065L267.605 174.142Z" fill="#090814"/>
<path d="M150.614 259.99C150.614 259.99 128.617 306.075 166.327 315.502C204.036 324.928 256.41 299.791 256.41 299.791C256.41 299.791 250.125 332.26 258.505 347.971L262.695 377.298C262.695 377.298 283.645 379.004 290.454 373.962L298.31 296.648C298.31 296.648 301.452 265.227 292.025 262.084C282.597 258.942 250.125 251.61 250.125 251.61L246.808 244.795L150.614 259.99Z" fill="#090814"/>
<path d="M163.184 306.075L148.52 347.971L102.43 332.26C102.43 332.26 91.9554 333.307 95.0979 354.255C95.0979 354.255 113.953 364.729 131.76 379.393C149.567 394.056 169.55 390.914 177.366 379.393C185.182 367.871 218.064 328.954 221.525 312.278L163.184 306.075Z" fill="#090814"/>
<path d="M265.838 371.013L262.695 377.298L267.933 416.051L294.12 410.814L290.454 373.961L265.838 371.013Z" fill="#ED9DA0"/>
<path d="M281.55 403.483C281.55 403.483 266.036 411.862 264.889 393.532C264.889 393.532 257.168 396.832 256.265 405.394C255.362 413.957 253.268 422.336 253.268 422.336C253.268 422.336 245.935 434.905 256.41 436.999C266.885 439.094 276.312 439.094 276.312 439.094C276.312 439.094 314.022 462.137 334.971 436.999C334.971 436.999 339.161 429.668 329.734 426.525C320.307 423.383 314.022 417.099 314.022 417.099L298.812 400.341C298.812 400.341 297.336 388.819 288.919 393.532C280.502 398.246 281.55 403.483 281.55 403.483Z" fill="#090814"/>
<path d="M102.429 334.355V332.26L85.6696 325.975C85.6696 325.975 74.0821 334.782 81.4471 347.661L95.097 354.255L102.429 334.355Z" fill="#ED9DA0"/>
<path d="M248.581 11.0805C248.581 11.0805 218.701 -9.19106 196.704 10.7095C174.706 30.61 173.227 67.1153 208.01 88.6637L205.083 73.5532C205.083 73.5532 196.704 60.9844 210.321 62.0318C223.938 63.0792 221.843 50.5105 221.843 50.5105C221.843 50.5105 251.008 37.3651 251.09 28.2269L261.965 45.3118C261.965 45.3118 283.698 27.1624 248.581 11.0805Z" fill="#090814"/>
<path d="M202.988 10.7095C202.988 10.7095 197.72 -1.52405 190.926 7.73494C184.133 16.9939 189.283 23.6267 189.283 23.6267L202.988 10.7095Z" fill="#6C63FF"/>
<path d="M203.973 256.327C200.068 253.853 195.64 253.152 191.891 254.054L189.704 252.585C183.031 246.908 150.742 219.125 146.721 209.728L168.421 179.34L144.236 159.961C144.236 159.961 113.952 208.667 122.332 221.236C129.821 232.468 171.974 259.139 180.853 264.683L183.784 266.851C184.57 270.626 187.096 274.329 191.001 276.803C197.833 281.13 206.276 280.055 209.858 274.401C213.44 268.747 210.805 260.655 203.973 256.327Z" fill="#ED9DA0"/>
<path d="M83.0518 444.855C83.0518 444.855 82.0043 433.333 78.8618 432.286C75.7194 431.239 67.3395 429.144 67.3395 429.144C67.3395 429.144 49.5322 427.049 49.5322 452.187C49.5322 452.187 51.2723 458.85 53.5447 459.708C55.8171 460.566 64.197 463.708 64.197 463.708C64.197 463.708 77.8143 463.708 77.8143 457.423L101.392 463.708C101.392 463.708 98.764 475.229 104.001 478.371C109.239 481.514 117.183 484 117.183 484C117.183 484 132.284 479.419 134.379 472.087C136.474 464.755 139.616 447.997 130.189 445.902L119.714 441.713C119.714 441.713 108.715 442.236 103.478 450.615L83.0518 444.855Z" fill="#D6D6E3"/>
<path d="M413.533 376.251V385.707C413.533 385.707 407.248 385.677 407.248 398.246V453.828C407.248 453.828 409.17 461.09 421.913 461.09C434.483 461.09 436.578 455.853 436.578 455.853V399.056C436.578 399.056 436.578 386.725 429.245 384.63L429.098 376.251C429.098 376.251 424.008 369.966 413.533 376.251Z" fill="#D6D6E3"/>
<path d="M53.5445 254.824L48.4845 255.276C48.4845 255.276 45.342 231.186 41.1521 224.902L44.2946 222.807L46.3895 233.281C46.3895 233.281 48.4845 225.949 45.3421 221.76L48.4845 216.523V206.049C48.4845 206.049 42.1996 177.769 9.72754 168.342C9.72754 168.342 35.9147 170.437 48.4845 196.622L49.532 175.674C49.532 175.674 43.2471 131.684 29.6298 122.257C29.6298 122.257 48.7973 139.015 51.7833 174.627C51.7833 174.627 61.0543 130.636 83.0515 127.494C83.0515 127.494 59.5787 146.347 54.0316 174.103L51.627 203.954C51.627 203.954 72.5767 170.437 94.5739 171.485C94.5739 171.485 66.2918 177.769 54.7694 205.001C54.7694 205.001 48.4845 219.123 52.1507 231.439C52.1507 231.439 57.9119 209.191 60.0069 209.191L58.9594 217.57C58.9594 217.57 51.627 230.139 52.6745 236.423C53.7219 242.708 53.5445 254.824 53.5445 254.824Z" fill="#D6D6E3"/>
<path d="M58.0068 311.002L39.3835 310.559C32.3709 310.392 26.6374 304.916 26.1492 297.919L23.8682 265.227H74.1475L71.8895 298.341C71.3948 305.596 65.2767 311.176 58.0068 311.002Z" fill="#D6D6E3"/>
<path d="M69.9981 269.861C56.0045 270.587 42.0109 270.587 28.0173 269.861C23.9344 269.649 20.7256 266.284 20.7256 262.195V252.658C37.9536 247.998 57.0508 248.693 77.2898 252.658V262.195C77.2898 266.284 74.081 269.649 69.9981 269.861Z" fill="#D6D6E3"/>
<path d="M12.8694 102.357C12.8694 102.357 4.48956 121.21 31.7242 149.489C31.7242 149.489 44.294 155.774 46.389 155.774C46.389 155.774 49.5315 148.442 50.5789 146.347C51.6264 144.252 52.9591 128.216 40.1041 113.878C26.4269 98.6227 19.0807 100.34 12.8694 102.357Z" fill="#D6D6E3"/>
<path d="M55.0978 162.82C55.0978 162.82 49.0085 145.824 58.4359 135.35C67.8632 124.876 81.4805 114.402 90.9079 117.544C90.9079 117.544 94.0504 120.686 91.9554 125.923C91.1135 128.028 89.9332 131.147 88.8224 134.126C86.1794 141.215 81.9951 147.663 76.3982 152.753C74.4332 154.54 72.4869 156.009 70.9365 156.559C65.7683 158.392 57.374 162.82 57.374 162.82H55.0978Z" fill="#D6D6E3"/>
<path d="M42.898 193.239C42.898 193.239 28.0583 194.004 15.4885 183.53C5.93974 175.573 1.83132 169.43 0.408033 166.936C-0.227761 165.823 -0.118873 164.418 0.723028 163.451C1.97927 162.007 4.89497 160.475 11.6536 160.852C23.8684 161.534 33.2957 164.677 38.5332 170.961C43.7706 177.245 46.1616 184.218 45.4899 191.206L42.898 193.239Z" fill="#D6D6E3"/>
<path d="M59.5435 193.251C59.5435 193.251 53.7403 179.571 77.0519 167.384C79.3444 166.185 81.849 165.451 84.4254 165.219C91.2147 164.607 104.575 164.553 107.667 173.056C107.667 173.056 107.149 174.702 100.599 179.116C96.0392 182.189 91.1315 184.635 88.571 185.838C87.4528 186.363 86.2826 186.753 85.0728 187.003L62.9051 191.575L59.5435 193.251Z" fill="#D6D6E3"/>
<path d="M48.4844 211.235L27.5347 205.547C27.5347 205.547 19.5324 203.329 13.8443 211.235C8.15619 219.141 7.1087 226.473 7.1087 226.473C7.1087 226.473 5.01373 236.947 9.20368 239.042C13.3936 241.136 41.152 224.902 41.152 224.902C41.152 224.902 49.0081 221.135 48.4844 211.235Z" fill="#D6D6E3"/>
<path d="M60.0063 209.191L74.1473 203.515C74.1473 203.515 93.0021 201.335 98.2395 213.904C103.477 226.473 100.334 229.615 100.334 229.615C100.334 229.615 100.334 231.71 96.1445 231.71C91.9546 231.71 68.6654 225.515 57.7891 219.71L60.0063 209.191Z" fill="#D6D6E3"/>
<path d="M172.612 123.828L161.613 123.304C161.613 123.304 134.902 156.297 134.902 166.771C134.902 166.771 166.327 173.056 170.517 189.814L187.534 156.559L172.612 123.828Z" fill="#6C63FF"/>
</g>
<defs>
<clipPath id="clip0_374_3892">
<rect width="465" height="484" fill="white"/>
</clipPath>
</defs>
</svg>
