<svg width="12" height="16" viewBox="0 0 12 16" fill="none" xmlns="http://www.w3.org/2000/svg">
<path d="M1.5 15.751C1.0875 15.751 0.734375 15.6041 0.440625 15.3104C0.146875 15.0166 0 14.6635 0 14.251V6.75098C0 6.33848 0.146875 5.98535 0.440625 5.6916C0.734375 5.39785 1.0875 5.25098 1.5 5.25098H2.25V3.75098C2.25 2.71348 2.61562 1.8291 3.34687 1.09785C4.07812 0.366602 4.9625 0.000976562 6 0.000976562C7.0375 0.000976562 7.92187 0.366602 8.65312 1.09785C9.38437 1.8291 9.75 2.71348 9.75 3.75098V5.25098H10.5C10.9125 5.25098 11.2656 5.39785 11.5594 5.6916C11.8531 5.98535 12 6.33848 12 6.75098V14.251C12 14.6635 11.8531 15.0166 11.5594 15.3104C11.2656 15.6041 10.9125 15.751 10.5 15.751H1.5V15.751M1.5 14.251H10.5V14.251V14.251V6.75098V6.75098V6.75098H1.5V6.75098V6.75098V14.251V14.251V14.251V14.251M6 12.001C6.4125 12.001 6.76562 11.8541 7.05937 11.5604C7.35312 11.2666 7.5 10.9135 7.5 10.501C7.5 10.0885 7.35312 9.73535 7.05937 9.4416C6.76562 9.14785 6.4125 9.00098 6 9.00098C5.5875 9.00098 5.23438 9.14785 4.94063 9.4416C4.64688 9.73535 4.5 10.0885 4.5 10.501C4.5 10.9135 4.64688 11.2666 4.94063 11.5604C5.23438 11.8541 5.5875 12.001 6 12.001V12.001M3.75 5.25098H8.25V3.75098C8.25 3.12598 8.03125 2.59473 7.59375 2.15723C7.15625 1.71973 6.625 1.50098 6 1.50098C5.375 1.50098 4.84375 1.71973 4.40625 2.15723C3.96875 2.59473 3.75 3.12598 3.75 3.75098V5.25098V5.25098M1.5 14.251V14.251V14.251V6.75098V6.75098V6.75098V6.75098V6.75098V6.75098V14.251V14.251V14.251V14.251V14.251" fill="#434656"/>
</svg>
