<svg width="40" height="40" viewBox="0 0 40 40" fill="none" xmlns="http://www.w3.org/2000/svg">
<path d="M0 40C0 36.3 0.491667 33.1417 1.475 30.525C2.45833 27.9083 3.71667 25.7333 5.25 24C6.78333 22.2667 8.5 20.925 10.4 19.975C12.3 19.025 14.1667 18.3667 16 18V12C11.4333 11.4333 7.625 10.025 4.575 7.775C1.525 5.525 0 2.93333 0 0H40C40 2.93333 38.475 5.525 35.425 7.775C32.375 10.025 28.5667 11.4333 24 12V18C25.8333 18.3667 27.7 19.025 29.6 19.975C31.5 20.925 33.2167 22.2667 34.75 24C36.2833 25.7333 37.5417 27.9083 38.525 30.525C39.5083 33.1417 40 36.3 40 40H28V36H35.75C35.15 30.9333 33.2583 27.2667 30.075 25C26.8917 22.7333 23.5333 21.6 20 21.6C16.4667 21.6 13.1083 22.7333 9.925 25C6.74167 27.2667 4.85 30.9333 4.25 36H12V40H0V40M20 8.25C23.0333 8.25 25.7333 7.84167 28.1 7.025C30.4667 6.20833 32.35 5.2 33.75 4H6.25C7.65 5.2 9.53333 6.20833 11.9 7.025C14.2667 7.84167 16.9667 8.25 20 8.25V8.25M20 40C18.9 40 17.9583 39.6083 17.175 38.825C16.3917 38.0417 16 37.1 16 36C16 35.4333 16.1083 34.9167 16.325 34.45C16.5417 33.9833 16.8333 33.5667 17.2 33.2C18 32.4 19.35 31.5583 21.25 30.675C23.15 29.7917 25.4 28.9 28 28C27.0667 30.6 26.1667 32.85 25.3 34.75C24.4333 36.65 23.6 38 22.8 38.8C22.4333 39.1667 22.0167 39.4583 21.55 39.675C21.0833 39.8917 20.5667 40 20 40V40M20 8.25V8.25V8.25V8.25V8.25V8.25V8.25" fill="#1D63FF"/>
</svg>
